<svg xmlns="http://www.w3.org/2000/svg" width="200" height="77" viewBox="0 0 200 77" fill="none"><g clip-path="url(#clip0_403_868)"><path d="M80.6067 23.7065H75.6274V19.22H90.723V23.7065H85.7121V41.6525H80.6067V23.7065Z" fill="white"></path><path d="M98.3021 42.0692C97.0021 42.0692 95.8282 41.8528 94.7882 41.4122C93.7482 40.9716 92.8658 40.3867 92.141 39.6497C91.4162 38.9126 90.8568 38.0553 90.4707 37.0699C90.0847 36.0845 89.8877 35.043 89.8877 33.9294C89.8877 32.8157 90.0847 31.7742 90.4707 30.7888C90.8568 29.8034 91.4162 28.9461 92.141 28.2091C92.8658 27.472 93.7482 26.8871 94.7882 26.4465C95.8282 26.0059 97.0021 25.7896 98.3021 25.7896C99.6021 25.7896 100.808 26.0059 101.848 26.4465C102.888 26.8871 103.77 27.472 104.495 28.2091C105.22 28.9461 105.779 29.8034 106.165 30.7888C106.551 31.7742 106.748 32.8157 106.748 33.9294C106.748 35.043 106.551 36.0845 106.165 37.0699C105.779 38.0553 105.22 38.9126 104.495 39.6497C103.77 40.3867 102.888 40.9716 101.848 41.4122C100.808 41.8528 99.6257 42.0692 98.3021 42.0692ZM98.3021 37.8711C98.8457 37.8711 99.35 37.7669 99.7991 37.5666C100.248 37.3663 100.634 37.0779 100.949 36.7174C101.264 36.3569 101.509 35.9403 101.69 35.4676C101.871 34.9949 101.958 34.4822 101.958 33.9294C101.958 33.3766 101.871 32.8879 101.69 32.4072C101.509 31.9265 101.264 31.5098 100.949 31.1573C100.634 30.8048 100.248 30.5244 99.7991 30.3081C99.35 30.0918 98.8457 29.9876 98.3021 29.9876C97.7585 29.9876 97.2621 30.0918 96.8209 30.3081C96.3797 30.5244 96.0015 30.8048 95.6864 31.1573C95.3713 31.5098 95.127 31.9265 94.9616 32.4072C94.7961 32.8879 94.7095 33.3926 94.7095 33.9294C94.7095 34.4661 94.7961 34.9949 94.9616 35.4676C95.127 35.9403 95.3713 36.3569 95.6864 36.7174C96.0015 37.0779 96.3797 37.3663 96.8209 37.5666C97.2621 37.7669 97.7585 37.8711 98.3021 37.8711Z" fill="white"></path><path d="M118.495 33.9293L124.389 41.6525H118.653L113.989 35.1791V41.6525H109.167V19.22H113.989V32.7436L118.684 26.2061H124.42L118.495 33.9293Z" fill="white"></path><path d="M129.195 35.1151C129.218 35.5878 129.281 36.0284 129.399 36.445C129.518 36.8616 129.707 37.2221 129.967 37.5346C130.227 37.847 130.573 38.0874 130.991 38.2717C131.408 38.4559 131.936 38.544 132.567 38.544C133.41 38.544 134.04 38.3758 134.473 38.0313C134.907 37.6868 135.206 37.2702 135.371 36.7815H140.099C139.996 37.5106 139.744 38.1915 139.358 38.8325C138.972 39.4734 138.452 40.0342 137.814 40.5149C137.176 40.9956 136.419 41.3722 135.545 41.6526C134.67 41.933 133.693 42.0692 132.598 42.0692C131.274 42.0692 130.101 41.8689 129.084 41.4763C128.068 41.0837 127.209 40.5229 126.516 39.7939C125.822 39.0648 125.295 38.2076 124.94 37.2141C124.586 36.2207 124.404 35.1231 124.404 33.9294C124.404 32.7997 124.578 31.7422 124.924 30.7568C125.271 29.7713 125.783 28.9141 126.469 28.177C127.154 27.44 127.989 26.8551 128.99 26.4305C129.99 26.0059 131.148 25.7896 132.472 25.7896C133.67 25.7896 134.749 25.9818 135.702 26.3664C136.656 26.7509 137.475 27.2637 138.16 27.9046C138.846 28.5455 139.366 29.2906 139.736 30.1479C140.106 31.0051 140.288 31.9024 140.288 32.8398C140.288 33.1602 140.288 33.5047 140.272 33.8653C140.264 34.2258 140.217 34.6424 140.13 35.1151H129.195ZM132.441 29.0583C131.495 29.0583 130.715 29.3387 130.108 29.8915C129.502 30.4443 129.195 31.2455 129.195 32.295H135.56C135.56 31.2935 135.269 30.5004 134.694 29.9235C134.119 29.3467 133.362 29.0583 132.441 29.0583Z" fill="white"></path><path d="M142.919 26.2062H147.741V28.4495C148.158 27.6163 148.796 26.9673 149.647 26.5107C150.498 26.054 151.522 25.8217 152.72 25.8217C153.705 25.8217 154.556 25.9739 155.273 26.2863C155.99 26.5988 156.557 27.0314 156.974 27.5842C157.455 28.1851 157.778 28.8741 157.936 29.6512C158.093 30.4283 158.172 31.3737 158.172 32.4873V41.6526H153.35V33.7371C153.35 32.6235 153.153 31.7262 152.767 31.0292C152.381 30.3322 151.68 29.9877 150.672 29.9877C149.663 29.9877 148.946 30.3402 148.466 31.0452C147.985 31.7502 147.741 32.7036 147.741 33.8974V41.6526H142.919V26.2062Z" fill="white"></path><path d="M160.686 21.0787C160.686 20.2055 160.977 19.4684 161.568 18.8675C162.159 18.2666 162.892 17.9702 163.774 17.9702C164.215 17.9702 164.625 18.0503 165.003 18.2106C165.381 18.3708 165.712 18.5871 165.996 18.8675C166.279 19.1479 166.5 19.4764 166.658 19.861C166.815 20.2455 166.894 20.6541 166.894 21.0787C166.894 21.5033 166.815 21.9039 166.658 22.2805C166.5 22.657 166.279 22.9855 165.996 23.2739C165.712 23.5623 165.381 23.7866 165.003 23.9469C164.625 24.1071 164.215 24.1872 163.774 24.1872C163.333 24.1872 162.931 24.1071 162.561 23.9469C162.19 23.7866 161.867 23.5623 161.584 23.2739C161.3 22.9855 161.079 22.657 160.922 22.2805C160.764 21.9039 160.686 21.5033 160.686 21.0787ZM161.379 26.2062H166.201V41.6526H161.379V26.2062Z" fill="white"></path><path d="M182.289 26.2062L175.608 37.4865H182.068V41.6526H168.139L174.851 30.3722H168.548V26.2062H182.289Z" fill="white"></path><path d="M200 26.2062V41.6526H195.178V39.4734C194.989 39.834 194.737 40.1705 194.422 40.4829C194.107 40.7954 193.744 41.0598 193.335 41.2841C192.925 41.5084 192.476 41.6927 191.995 41.8289C191.515 41.9651 191.026 42.0372 190.546 42.0372C189.45 42.0372 188.45 41.8289 187.536 41.4123C186.622 40.9957 185.842 40.4268 185.188 39.7138C184.534 39.0008 184.03 38.1435 183.675 37.1501C183.321 36.1566 183.14 35.0831 183.14 33.9294C183.14 32.7757 183.321 31.7022 183.675 30.7087C184.03 29.7153 184.534 28.8581 185.188 28.145C185.842 27.432 186.622 26.8632 187.536 26.4466C188.45 26.03 189.45 25.8217 190.546 25.8217C191.026 25.8217 191.515 25.8938 191.995 26.03C192.476 26.1662 192.925 26.3584 193.335 26.5908C193.744 26.8231 194.107 27.1035 194.422 27.424C194.737 27.7444 194.989 28.0729 195.178 28.4174V26.2062H200ZM191.554 37.8711C192.098 37.8711 192.594 37.767 193.035 37.5507C193.476 37.3344 193.855 37.0539 194.17 36.7014C194.485 36.3489 194.729 35.9323 194.91 35.4516C195.092 34.9709 195.178 34.4662 195.178 33.9294C195.178 33.3926 195.092 32.8959 194.91 32.4232C194.729 31.9505 194.485 31.5339 194.17 31.1734C193.855 30.8129 193.476 30.5245 193.035 30.3082C192.594 30.0918 192.098 29.9877 191.554 29.9877C191.01 29.9877 190.514 30.0918 190.073 30.3082C189.632 30.5245 189.254 30.8129 188.938 31.1734C188.623 31.5339 188.379 31.9505 188.198 32.4232C188.017 32.8959 187.93 33.3926 187.93 33.9294C187.93 34.4662 188.017 34.9709 188.198 35.4516C188.379 35.9323 188.623 36.3489 188.938 36.7014C189.254 37.0539 189.632 37.3344 190.073 37.5507C190.514 37.767 191.01 37.8711 191.554 37.8711Z" fill="white"></path><path d="M56.7262 0H37.8174V19.2279H56.7262V0Z" fill="#3b82f6"></path><path d="M0 19.2279V38.4558H18.9088V57.6837H37.8176V38.4558V19.2279H0Z" fill="#3b82f6"></path><path d="M18.9088 57.6836H0V76.9115H18.9088V57.6836Z" fill="#3b82f6"></path></g><defs><clipPath id="clip0_403_868"><rect width="200" height="76.9115" fill="white"></rect></clipPath></defs></svg>

